<?xml version="1.0" encoding="UTF-8" standalone="no"?>
<!-- Created with Inkscape (http://www.inkscape.org/) -->

<svg
   xmlns:dc="http://purl.org/dc/elements/1.1/"
   xmlns:cc="http://creativecommons.org/ns#"
   xmlns:rdf="http://www.w3.org/1999/02/22-rdf-syntax-ns#"
   xmlns:svg="http://www.w3.org/2000/svg"
   xmlns="http://www.w3.org/2000/svg"
   xmlns:xlink="http://www.w3.org/1999/xlink"
   xmlns:sodipodi="http://sodipodi.sourceforge.net/DTD/sodipodi-0.dtd"
   xmlns:inkscape="http://www.inkscape.org/namespaces/inkscape"
   width="744.09448819"
   height="1052.3622047"
   id="svg2"
   version="1.1"
   inkscape:version="0.48.2 r9819"
   sodipodi:docname="icon.svg">
  <defs
     id="defs4">
    <linearGradient
       id="linearGradient4232">
      <stop
         style="stop-color:#ffffff;stop-opacity:1;"
         offset="0"
         id="stop4234" />
      <stop
         style="stop-color:#647a80;stop-opacity:1"
         offset="1"
         id="stop4236" />
    </linearGradient>
    <linearGradient
       inkscape:collect="always"
       id="linearGradient4162">
      <stop
         style="stop-color:#ffffff;stop-opacity:1"
         offset="0"
         id="stop4164" />
      <stop
         style="stop-color:#ffffff;stop-opacity:0"
         offset="1"
         id="stop4166" />
    </linearGradient>
    <linearGradient
       inkscape:collect="always"
       xlink:href="#linearGradient4162"
       id="linearGradient4168"
       x1="313.19803"
       y1="173.52946"
       x2="284.30716"
       y2="220.50156"
       gradientUnits="userSpaceOnUse" />
    <filter
       inkscape:collect="always"
       id="filter4174"
       x="-0.1760456"
       width="1.3520912"
       y="-0.17992896"
       height="1.3598579">
      <feGaussianBlur
         inkscape:collect="always"
         stdDeviation="5.1497451"
         id="feGaussianBlur4176" />
    </filter>
    <filter
       inkscape:collect="always"
       id="filter4228"
       x="-0.12304505"
       width="1.2460901"
       y="-0.14283468"
       height="1.2856694">
      <feGaussianBlur
         inkscape:collect="always"
         stdDeviation="7.7870744"
         id="feGaussianBlur4230" />
    </filter>
    <linearGradient
       inkscape:collect="always"
       xlink:href="#linearGradient4232"
       id="linearGradient4238"
       x1="343.80597"
       y1="105.2179"
       x2="374.66507"
       y2="122.3905"
       gradientUnits="userSpaceOnUse" />
    <filter
       inkscape:collect="always"
       id="filter4257"
       x="-0.16375"
       width="1.3275"
       y="-0.44914283"
       height="1.8982857">
      <feGaussianBlur
         inkscape:collect="always"
         stdDeviation="6.616499"
         id="feGaussianBlur4259" />
    </filter>
    <filter
       inkscape:collect="always"
       id="filter4263">
      <feGaussianBlur
         inkscape:collect="always"
         stdDeviation="2.7212056"
         id="feGaussianBlur4265" />
    </filter>
    <mask
       maskUnits="userSpaceOnUse"
       id="mask4269">
      <rect
         ry="20.203157"
         y="36.653217"
         x="234.47273"
         height="221.22458"
         width="208.86693"
         id="rect4271"
         style="fill:#334a84;fill-opacity:1;stroke:none" />
    </mask>
  </defs>
  <sodipodi:namedview
     id="base"
     pagecolor="#ffffff"
     bordercolor="#666666"
     borderopacity="1.0"
     inkscape:pageopacity="0.0"
     inkscape:pageshadow="2"
     inkscape:zoom="1.979899"
     inkscape:cx="342.22725"
     inkscape:cy="878.74256"
     inkscape:document-units="px"
     inkscape:current-layer="layer1"
     showgrid="false"
     inkscape:window-width="1920"
     inkscape:window-height="1028"
     inkscape:window-x="1272"
     inkscape:window-y="-8"
     inkscape:window-maximized="1" />
  <metadata
     id="metadata7">
    <rdf:RDF>
      <cc:Work
         rdf:about="">
        <dc:format>image/svg+xml</dc:format>
        <dc:type
           rdf:resource="http://purl.org/dc/dcmitype/StillImage" />
        <dc:title></dc:title>
      </cc:Work>
    </rdf:RDF>
  </metadata>
  <g
     inkscape:label="Layer 1"
     inkscape:groupmode="layer"
     id="layer1">
    <rect
       style="fill:#334a84;fill-opacity:1;stroke:none"
       id="rect3761"
       width="222.11349"
       height="222.86043"
       x="221.21992"
       y="36.367512"
       ry="20.352551"
       inkscape:export-filename="F:\dev\projects\fuse\favicon.png"
       inkscape:export-xdpi="26.002108"
       inkscape:export-ydpi="26.002108" />
    <path
       style="fill:#000000;fill-opacity:1;stroke:#000000;stroke-width:10;stroke-linejoin:round;stroke-miterlimit:4;stroke-opacity:1;stroke-dashoffset:0;filter:url(#filter4257);opacity:0.40948276"
       d="m 240.92137,213.4305 84.34773,-8.5863 12.62691,35.35534 -78.79189,-6.06092 z"
       id="rect4242"
       inkscape:connector-curvature="0"
       sodipodi:nodetypes="ccccc" />
    <path
       style="fill:none;stroke:url(#linearGradient4238);stroke-width:20;stroke-linecap:butt;stroke-linejoin:miter;stroke-miterlimit:4;stroke-opacity:1;stroke-dasharray:none"
       d="M 396.98995,62.412688 311.8846,178.32769"
       id="path3763"
       inkscape:connector-curvature="0"
       sodipodi:nodetypes="cc" />
    <rect
       style="fill:#698187;fill-opacity:1;stroke:#4e6066;stroke-width:10;stroke-linejoin:round;stroke-miterlimit:4;stroke-opacity:1;stroke-dasharray:none;stroke-dashoffset:0"
       id="rect3765"
       width="70.205605"
       height="68.690376"
       x="264.15488"
       y="164.4381"
       ry="0" />
    <g
       id="g4120">
      <path
         style="opacity:0.83189655;fill:#e2faff;fill-opacity:0.83076926;stroke:#ffffff;stroke-width:10;stroke-linejoin:round;stroke-miterlimit:4;stroke-opacity:0.63589747;stroke-dasharray:none;stroke-dashoffset:0"
         id="path4140"
         d="m 314.11933,162.47206 c -0.49456,-1.43969 -0.82723,-2.92741 -1.41911,-4.3344 -0.66024,-1.20989 -1.10187,-2.52776 -1.7477,-3.74725 -0.83169,-1.41928 -1.52185,-2.92444 -2.26583,-4.39476 -1.0246,-1.80605 -1.73456,-3.75483 -2.60359,-5.6328 -0.8335,-1.98686 -1.43508,-4.06458 -2.27228,-6.04723 -0.9657,-2.22187 -1.87006,-4.46895 -2.86605,-6.6775 -1.01379,-2.38917 -2.06616,-4.76 -3.12602,-7.12897 -1.27005,-2.52412 -2.14179,-5.21911 -3.22558,-7.82511 -1.35387,-2.98051 -2.69762,-5.96433 -4.05677,-8.94293 -1.31891,-2.97214 -2.86074,-5.83901 -4.25029,-8.777587 -0.61767,-1.420566 -1.41503,-2.743823 -2.05064,-4.156103 -0.21868,-0.485875 -0.39463,-0.990627 -0.62251,-1.472254 -0.19462,-0.411322 -0.42912,-0.802559 -0.64368,-1.203839 -0.21072,-0.458168 -0.42145,-0.916336 -0.63217,-1.374505 -1.04678,-2.461505 -2.36855,-4.788077 -3.58308,-7.165909 -1.01194,-1.959057 -2.10357,-3.870312 -3.053,-5.861747 -0.64802,-1.248991 -1.39642,-2.429919 -2.22689,-3.562304 -0.10328,-0.188009 -0.20656,-0.376019 -0.30983,-0.564028 0,0 9.70092,-2.360624 9.70092,-2.360624 l 0,0 c 0.0843,0.123146 0.16859,0.246291 0.25289,0.369437 0.83149,1.349219 1.6073,2.731987 2.27977,4.1688 0.9544,1.940825 2.01767,3.824609 2.97481,5.764323 1.25752,2.411479 2.4576,4.853298 3.5704,7.335227 1.30317,2.721531 2.57049,5.45793 3.90775,8.163101 1.4555,2.942055 2.90969,5.886832 4.24626,8.885212 1.36778,3.03245 2.8124,6.0286 4.12805,9.08421 1.05173,2.58029 2.0094,5.20183 3.25569,7.69799 1.04832,2.37344 2.07796,4.75491 3.12778,7.12769 0.99654,2.27038 1.95537,4.55739 2.92244,6.84039 0.74432,1.96386 1.44372,3.94578 2.26827,5.87847 0.78297,1.83562 1.61483,3.64393 2.58141,5.39213 0.77204,1.49314 1.51388,3.00063 2.31776,4.47641 0.6238,1.37935 1.25139,2.75873 1.8193,4.16184 0.53605,1.59597 0.98758,3.21808 1.53761,4.80943 0,0 -9.93609,1.07519 -9.93609,1.07519 z"
         inkscape:connector-curvature="0" />
      <path
         style="opacity:0.83189655;fill:#e2faff;fill-opacity:0.83076926;stroke:#ffffff;stroke-width:10;stroke-linejoin:round;stroke-miterlimit:4;stroke-opacity:0.63589747;stroke-dasharray:none;stroke-dashoffset:0"
         id="path4142"
         d="m 316.4002,160.70733 c 1.97948,-0.73613 3.97506,-1.45624 5.94803,-2.21928 3.35269,-1.03233 6.76188,-1.87868 10.15897,-2.75556 5.1295,-1.43777 10.3503,-2.48743 15.58327,-3.46354 6.15806,-1.11253 12.30911,-2.22553 18.43018,-3.52854 5.89703,-1.30833 11.79678,-2.61384 17.72431,-3.77769 4.41119,-0.84054 8.80311,-1.77671 13.20606,-2.65906 0.56988,-0.10876 1.13976,-0.21751 1.70964,-0.32626 0,0 7.98174,5.54923 7.98174,5.54923 l 0,0 c -0.58475,0.11337 -1.16949,0.22675 -1.75424,0.34012 -4.4707,0.74453 -8.89657,1.70593 -13.35119,2.53639 -5.94237,1.06356 -11.85939,2.27631 -17.73838,3.64502 -3.10792,0.66219 -6.20829,1.43061 -9.3297,2.02363 -2.03907,0.3874 -4.10343,0.63188 -6.14361,1.01336 -0.99836,0.18667 -1.98975,0.40888 -2.98463,0.61332 -5.11124,0.92685 -10.22455,1.87637 -15.23307,3.27302 -0.67981,0.19496 -1.35962,0.38992 -2.03942,0.58488 -0.62683,0.15109 -1.2598,0.27866 -1.88049,0.45326 -2.19054,0.6162 -1.24914,0.51302 -3.33657,1.01545 -0.4508,0.1085 -0.9151,0.15475 -1.36579,0.26368 -0.4363,0.10546 -0.86148,0.25251 -1.29221,0.37876 -2.11138,0.50374 -0.19363,-0.0314 -2.20132,0.75691 -1.15984,0.45538 -2.41847,0.70068 -3.48862,1.36163 0,0 -8.60296,-5.07873 -8.60296,-5.07873 z"
         inkscape:connector-curvature="0" />
      <path
         style="opacity:0.83189655;fill:#e2faff;fill-opacity:0.83076926;stroke:#ffffff;stroke-width:10;stroke-linejoin:round;stroke-miterlimit:4;stroke-opacity:0.63589747;stroke-dasharray:none;stroke-dashoffset:0"
         id="path4144"
         d="m 316.73493,163.44969 c 0.0625,-1.53886 0.0356,-3.0798 0.0224,-4.61944 0.017,-1.61556 -0.0279,-3.23131 0.0798,-4.84379 0.14516,-1.8973 0.50245,-3.76689 0.71456,-5.65665 0.0106,-2.32135 -0.0795,-4.63486 0.009,-6.95637 0.12453,-2.95632 0.22084,-5.91146 0.41717,-8.86409 0.26926,-3.2135 0.32207,-6.4302 0.22989,-9.65106 -0.16618,-3.44511 -0.38135,-6.8962 -0.85022,-10.31496 -0.36844,-3.47288 -0.96251,-6.91333 -1.43561,-10.37173 -0.33593,-2.06035 -0.59454,-4.131483 -0.81812,-6.206578 0,0 9.78722,-0.435051 9.78722,-0.435051 l 0,0 c 0.19168,2.028955 0.43492,4.0514 0.75282,6.064929 0.4646,3.46458 1.0352,6.9141 1.41892,10.3897 0.44925,3.55917 0.71351,7.14296 0.87831,10.72596 0.13495,3.36426 0.031,6.72167 -0.2062,10.08059 -0.18899,2.9109 -0.24636,5.82388 -0.35469,8.73866 -0.0826,2.42684 0.0817,4.84054 0.0401,7.2668 -0.19094,1.83853 -0.48961,3.66152 -0.66958,5.501 -0.11786,1.50727 -0.0185,3.02201 -0.0411,4.53264 -0.0132,1.53964 -0.0401,3.08058 0.0224,4.61944 0,0 -9.99731,0 -9.99731,0 z"
         inkscape:connector-curvature="0" />
      <path
         style="opacity:0.83189655;fill:#e2faff;fill-opacity:0.83076926;stroke:#ffffff;stroke-width:10;stroke-linejoin:round;stroke-miterlimit:4;stroke-opacity:0.63589747;stroke-dasharray:none;stroke-dashoffset:0"
         id="path4146"
         d="m 315.06691,164.63277 c 1.43563,-0.96186 2.90078,-1.86634 4.25145,-2.94871 1.18625,-0.91767 2.45385,-1.71943 3.64984,-2.62341 1.25508,-1.03699 2.45035,-2.13776 3.83632,-3.00004 1.50305,-1.07276 3.14166,-1.93191 4.74753,-2.83676 1.74374,-1.00193 3.24015,-2.37829 4.85509,-3.5711 2.15816,-1.51286 4.32806,-3.00142 6.63928,-4.27166 1.35752,-0.67688 2.70046,-1.38077 4.03725,-2.09744 0,0 8.71527,4.38346 8.71527,4.38346 l 0,0 c -1.33932,0.78553 -2.67718,1.57622 -4.07248,2.2604 -0.15153,0.072 -2.1661,1.02476 -2.35003,1.12666 -1.39842,0.77471 -2.6665,1.78461 -3.9886,2.67595 -1.76618,1.11642 -3.37823,2.42053 -4.92835,3.8204 -1.50442,0.96504 -3.07356,1.81041 -4.64715,2.65568 -1.21578,0.87223 -2.61,1.49098 -3.64302,2.61561 -1.1842,1.04835 -2.43055,2.00001 -3.76223,2.85298 -1.44382,0.94464 -2.67617,2.20072 -4.21176,3.01523 0,0 -9.12841,-4.05725 -9.12841,-4.05725 z"
         inkscape:connector-curvature="0" />
      <path
         style="opacity:0.83189655;fill:#e2faff;fill-opacity:0.83076926;stroke:#ffffff;stroke-width:10;stroke-linejoin:round;stroke-miterlimit:4;stroke-opacity:0.63589747;stroke-dasharray:none;stroke-dashoffset:0"
         id="path4148"
         d="m 320.45112,166.30675 c 5.23388,0.0796 10.46817,0.12179 15.70255,0.19468 0.52686,0.0361 1.05346,0.0761 1.58057,0.1084 0.53815,0.0329 1.076,0.0809 1.61512,0.0872 0.56324,0.007 2.25237,-0.0404 1.68915,-0.0487 -1.88338,-0.0278 -3.76722,0.005 -5.65075,-0.01 -0.64137,-0.005 1.28275,-0.0107 1.92407,-0.0198 0.65885,-0.009 1.31762,-0.0237 1.97643,-0.0356 6.97164,-0.14966 13.93301,0.19724 20.90141,0.29878 4.98915,0.22938 9.95655,0.75242 14.89245,1.50536 4.81624,0.56628 9.58921,1.42537 14.33741,2.39981 0.72251,0.20326 1.44502,0.40653 2.16753,0.6098 0,0 -8.04806,5.29988 -8.04806,5.29988 l 0,0 c -0.6718,-0.14872 -1.3436,-0.29743 -2.01541,-0.44615 -4.69951,-0.89242 -9.42468,-1.6224 -14.17045,-2.22401 -4.84349,-0.60675 -9.7149,-1.03208 -14.59896,-1.0836 -3.0765,-0.0563 -6.15226,-0.153 -9.22879,-0.204 -0.71787,-0.0119 -2.87162,-0.0114 -2.15376,-0.0238 1.80898,-0.0311 3.61844,-0.0217 5.42766,-0.0326 -6.09197,0.14216 -12.19019,0.29095 -18.27615,-0.0855 12.87124,0.0136 2.6448,-0.03 -0.379,0.0739 0,0 -7.69302,-6.36422 -7.69302,-6.36422 z"
         inkscape:connector-curvature="0" />
      <path
         style="opacity:0.83189655;fill:#e2faff;fill-opacity:0.83076926;stroke:#ffffff;stroke-width:10;stroke-linejoin:round;stroke-miterlimit:4;stroke-opacity:0.63589747;stroke-dasharray:none;stroke-dashoffset:0"
         id="path4150"
         d="m 317.63178,167.38174 c -1.06483,-1.5237 -2.23608,-2.96008 -3.42365,-4.38883 -1.30803,-2.00781 -3.08261,-3.55843 -4.85258,-5.1343 -2.61432,-2.18814 -5.26373,-4.33331 -7.93903,-6.44769 -3.24568,-2.45145 -6.52627,-4.85673 -9.78774,-7.28737 -2.71472,-2.00174 -5.32272,-4.15197 -8.05904,-6.1245 -0.4803,-0.34624 -3.75535,-2.56183 -4.23247,-2.88536 -3.94193,-2.47372 -7.53604,-5.43444 -11.11207,-8.3982 -2.74503,-2.28898 -5.4003,-4.67736 -7.83413,-7.29767 -1.5859,-1.56835 -3.21519,-3.07743 -4.65648,-4.78083 -0.15982,-0.23709 -0.31964,-0.47419 -0.47947,-0.71129 0,0 9.55222,-2.7837 9.55222,-2.7837 l 0,0 c 0.12242,0.13846 0.24484,0.27693 0.36726,0.4154 1.43349,1.59136 3.00343,3.05615 4.44437,4.64142 2.39293,2.42546 4.92926,4.69754 7.55253,6.87181 3.48175,2.87929 7.05634,5.63622 10.85144,8.09597 4.2194,2.92907 8.2781,6.07221 12.41602,9.11389 3.32854,2.43447 6.6922,4.82476 9.91982,7.39336 2.74069,2.18659 5.5131,4.33948 8.1366,6.66728 1.89662,1.7446 3.58596,3.66379 5.14712,5.71426 1.22993,1.52397 2.41914,3.07835 3.60904,4.63385 0,0 -9.61976,2.6925 -9.61976,2.6925 z"
         inkscape:connector-curvature="0" />
      <path
         style="opacity:0.83189655;fill:#e2faff;fill-opacity:0.83076926;stroke:#ffffff;stroke-width:10;stroke-linejoin:round;stroke-miterlimit:4;stroke-opacity:0.63589747;stroke-dasharray:none;stroke-dashoffset:0"
         id="path4152"
         d="m 317.12441,160.19433 c -0.51449,-1.65625 -0.9019,-3.34666 -1.31206,-5.03057 -0.4071,-1.30659 -0.83599,-2.60216 -1.27476,-3.89835 -0.50707,-1.583 -0.99502,-3.17327 -1.55958,-4.73737 -0.8291,-2.19581 -1.77991,-4.34448 -2.52141,-6.57171 -0.92096,-2.55104 -1.97687,-5.04944 -2.95305,-7.58097 -1.21858,-2.94709 -2.08054,-6.02274 -3.17127,-9.01637 -1.16524,-3.12263 -2.33839,-6.24134 -3.56712,-9.33913 -1.15116,-3.11056 -2.24674,-6.24087 -3.37351,-9.36051 -1.11059,-2.66432 -1.78708,-5.479837 -2.77162,-8.185297 -0.13041,-0.38696 -0.26082,-0.77392 -0.39123,-1.16088 0,0 9.74205,-1.387548 9.74205,-1.387548 l 0,0 c 0.12476,0.379074 0.24952,0.758147 0.37427,1.137221 0.8692,2.721429 1.64976,5.471434 2.68592,8.137864 1.07935,3.08954 2.2206,6.15532 3.34865,9.22727 1.21419,3.1453 2.42493,6.29161 3.57741,9.46025 1.05024,2.96726 1.98902,5.97556 3.20099,8.88359 1.02675,2.56876 2.09142,5.12184 3.0141,7.73091 0.81901,2.19883 1.77245,4.34435 2.58785,6.54477 0.55541,1.58576 1.09785,3.17657 1.61215,4.77609 0.4943,1.41766 0.9407,2.84995 1.31565,4.30431 0.36478,1.51658 0.67671,3.05942 1.30257,4.49593 0,0 -9.866,1.5705 -9.866,1.5705 z"
         inkscape:connector-curvature="0" />
      <path
         style="opacity:0.83189655;fill:#e2faff;fill-opacity:0.83076926;stroke:#ffffff;stroke-width:10;stroke-linejoin:round;stroke-miterlimit:4;stroke-opacity:0.63589747;stroke-dasharray:none;stroke-dashoffset:0"
         id="path4154"
         d="m 316.88637,171.4984 c 0.49648,-1.6617 1.0662,-3.29592 1.81046,-4.86307 0.63617,-1.45903 1.79097,-2.44118 2.97004,-3.43691 1.08135,-0.86213 2.343,-1.41169 3.52106,-2.1093 1.61969,-1.07708 3.1261,-2.30669 4.70475,-3.44017 2.34433,-1.57917 4.87828,-2.84576 7.36239,-4.1853 3.37694,-1.79769 6.76708,-3.57177 10.16503,-5.32987 3.94512,-2.21059 7.98533,-4.23698 11.99684,-6.32128 4.15563,-2.30383 8.3786,-4.48127 12.61381,-6.63404 3.77114,-1.85861 7.43807,-3.91735 11.13407,-5.9187 0,0 8.58058,4.45081 8.58058,4.45081 l 0,0 c -1.82069,0.92406 -3.57699,1.95158 -5.38664,2.8958 -0.61442,0.32058 -1.2515,0.59742 -1.85925,0.9305 -4.16396,2.28213 0.22405,0.13108 -3.98029,2.11879 -4.21754,2.11658 -8.44809,4.21585 -12.55881,6.53552 -3.94563,2.20217 -8.07371,4.04744 -11.96719,6.34962 -3.30987,1.83214 -6.66637,3.58719 -10.0354,5.30784 -2.34084,1.35637 -4.73559,2.61676 -7.09824,3.9278 -1.62597,1.00545 -3.07991,2.20363 -4.6019,3.35316 -0.23406,0.19096 -1.13857,0.93755 -1.39217,1.11025 -0.67525,0.45983 -1.51144,0.61027 -2.14557,1.14758 -0.74771,0.32288 -0.12529,0.0161 -0.89189,0.52624 -0.47373,0.31528 -1.03473,0.43739 -1.42069,0.89258 -0.76176,1.14616 -1.22557,2.4453 -1.5849,3.76733 0,0 -9.93609,-1.07518 -9.93609,-1.07518 z"
         inkscape:connector-curvature="0" />
      <path
         style="opacity:0.83189655;fill:#e2faff;fill-opacity:0.83076926;stroke:#ffffff;stroke-width:10;stroke-linejoin:round;stroke-miterlimit:4;stroke-opacity:0.63589747;stroke-dasharray:none;stroke-dashoffset:0"
         id="path4156"
         d="m 319.91683,164.42733 c 0.60467,-2.20804 1.67962,-4.22201 2.85105,-6.17232 1.32898,-2.15578 3.00613,-4.05754 4.80895,-5.82405 1.93499,-1.88192 3.685,-3.94588 5.47192,-5.96691 2.17914,-2.31442 4.51138,-4.4773 6.85488,-6.6228 2.49925,-2.0669 4.72634,-4.41438 7.00666,-6.71078 2.33366,-2.19537 4.69206,-4.34875 6.87913,-6.69271 1.14389,-1.19921 2.23703,-2.44365 3.29406,-3.7195 0,0 9.41764,2.88365 9.41764,2.88365 l 0,0 c -1.08488,1.39532 -2.22512,2.75119 -3.45405,4.02277 -1.09385,1.15984 -2.16682,2.34708 -3.29987,3.46897 -1.53577,1.52064 -0.92676,0.85314 -2.48637,2.25527 -0.40887,0.36758 -0.8039,0.75025 -1.20585,1.12538 -2.39077,2.26385 -4.47482,4.83199 -7.06026,6.89213 -2.29074,2.00197 -4.47658,4.11728 -6.66226,6.23093 -1.91491,2.027 -3.68275,4.19206 -5.54658,6.26687 -1.61842,1.48639 -3.2136,3.00342 -4.46986,4.82276 -1.01729,1.49263 -2.0029,3.0504 -2.4631,4.81552 0,0 -9.93609,-1.07518 -9.93609,-1.07518 z"
         inkscape:connector-curvature="0" />
      <path
         style="opacity:0.83189655;fill:#e2faff;fill-opacity:0.83076926;stroke:#ffffff;stroke-width:10;stroke-linejoin:round;stroke-miterlimit:4;stroke-opacity:0.63589747;stroke-dasharray:none;stroke-dashoffset:0"
         id="path4158"
         d="m 326.51389,167.72066 c 0.25196,0.18071 0.48187,0.39701 0.75588,0.54213 0.26769,0.14177 0.57886,0.18387 0.85404,0.31049 0.37305,0.17165 0.71926,0.39684 1.08574,0.58209 1.26238,0.63814 2.52837,1.2727 3.80259,1.88758 1.40007,0.85837 2.96321,1.37847 4.44533,2.06241 1.79066,0.82631 3.55022,1.74407 5.32444,2.6062 3.9288,1.62152 7.50083,3.90083 11.13977,6.06056 3.89466,2.36772 7.66197,4.93474 11.50902,7.37572 4.16836,2.50286 8.26895,5.12438 12.55477,7.42373 0.72711,0.37508 1.45422,0.75017 2.18133,1.12525 0,0 -8.49925,4.38881 -8.49925,4.38881 l 0,0 c -0.73707,-0.40114 -1.47414,-0.80228 -2.21121,-1.20342 -4.28647,-2.46288 -8.52552,-5.00788 -12.70407,-7.65014 -3.78732,-2.46316 -7.60113,-4.88527 -11.46831,-7.22163 -3.5633,-2.09989 -7.21773,-4.01936 -10.99309,-5.7145 -3.29768,-1.54845 -6.63581,-3.00825 -9.89537,-4.63687 -1.62416,-0.79738 -3.27789,-1.52449 -4.91224,-2.29688 -0.34968,-0.16526 -0.67615,-0.37832 -1.03082,-0.53257 -0.20884,-0.0908 -0.43556,-0.13328 -0.65333,-0.19991 0,0 8.71478,-4.90905 8.71478,-4.90905 z"
         inkscape:connector-curvature="0" />
    </g>
    <rect
       ry="0"
       y="164.4381"
       x="264.15488"
       height="68.690376"
       width="70.205605"
       id="rect4160"
       style="fill:url(#linearGradient4168);fill-opacity:1;stroke:none;stroke-width:10;stroke-linejoin:round;stroke-miterlimit:4;stroke-opacity:1;stroke-dasharray:none;stroke-dashoffset:0;filter:url(#filter4174)" />
    <g
       id="g4190"
       style="filter:url(#filter4228)">
      <path
         inkscape:connector-curvature="0"
         d="m 314.11933,162.47206 c -0.49456,-1.43969 -0.82723,-2.92741 -1.41911,-4.3344 -0.66024,-1.20989 -1.10187,-2.52776 -1.7477,-3.74725 -0.83169,-1.41928 -1.52185,-2.92444 -2.26583,-4.39476 -1.0246,-1.80605 -1.73456,-3.75483 -2.60359,-5.6328 -0.8335,-1.98686 -1.43508,-4.06458 -2.27228,-6.04723 -0.9657,-2.22187 -1.87006,-4.46895 -2.86605,-6.6775 -1.01379,-2.38917 -2.06616,-4.76 -3.12602,-7.12897 -1.27005,-2.52412 -2.14179,-5.21911 -3.22558,-7.82511 -1.35387,-2.98051 -2.69762,-5.96433 -4.05677,-8.94293 -1.31891,-2.97214 -2.86074,-5.83901 -4.25029,-8.777587 -0.61767,-1.420566 -1.41503,-2.743823 -2.05064,-4.156103 -0.21868,-0.485875 -0.39463,-0.990627 -0.62251,-1.472254 -0.19462,-0.411322 -0.42912,-0.802559 -0.64368,-1.203839 -0.21072,-0.458168 -0.42145,-0.916336 -0.63217,-1.374505 -1.04678,-2.461505 -2.36855,-4.788077 -3.58308,-7.165909 -1.01194,-1.959057 -2.10357,-3.870312 -3.053,-5.861747 -0.64802,-1.248991 -1.39642,-2.429919 -2.22689,-3.562304 -0.10328,-0.188009 -0.20656,-0.376019 -0.30983,-0.564028 0,0 9.70092,-2.360624 9.70092,-2.360624 l 0,0 c 0.0843,0.123146 0.16859,0.246291 0.25289,0.369437 0.83149,1.349219 1.6073,2.731987 2.27977,4.1688 0.9544,1.940825 2.01767,3.824609 2.97481,5.764323 1.25752,2.411479 2.4576,4.853298 3.5704,7.335227 1.30317,2.721531 2.57049,5.45793 3.90775,8.163101 1.4555,2.942055 2.90969,5.886832 4.24626,8.885212 1.36778,3.03245 2.8124,6.0286 4.12805,9.08421 1.05173,2.58029 2.0094,5.20183 3.25569,7.69799 1.04832,2.37344 2.07796,4.75491 3.12778,7.12769 0.99654,2.27038 1.95537,4.55739 2.92244,6.84039 0.74432,1.96386 1.44372,3.94578 2.26827,5.87847 0.78297,1.83562 1.61483,3.64393 2.58141,5.39213 0.77204,1.49314 1.51388,3.00063 2.31776,4.47641 0.6238,1.37935 1.25139,2.75873 1.8193,4.16184 0.53605,1.59597 0.98758,3.21808 1.53761,4.80943 0,0 -9.93609,1.07519 -9.93609,1.07519 z"
         id="path4192"
         style="opacity:0.83189655;fill:#e2faff;fill-opacity:0.83076926;stroke:#ffffff;stroke-width:10;stroke-linejoin:round;stroke-miterlimit:4;stroke-opacity:0.63589747;stroke-dasharray:none;stroke-dashoffset:0" />
      <path
         inkscape:connector-curvature="0"
         d="m 316.4002,160.70733 c 1.97948,-0.73613 3.97506,-1.45624 5.94803,-2.21928 3.35269,-1.03233 6.76188,-1.87868 10.15897,-2.75556 5.1295,-1.43777 10.3503,-2.48743 15.58327,-3.46354 6.15806,-1.11253 12.30911,-2.22553 18.43018,-3.52854 5.89703,-1.30833 11.79678,-2.61384 17.72431,-3.77769 4.41119,-0.84054 8.80311,-1.77671 13.20606,-2.65906 0.56988,-0.10876 1.13976,-0.21751 1.70964,-0.32626 0,0 7.98174,5.54923 7.98174,5.54923 l 0,0 c -0.58475,0.11337 -1.16949,0.22675 -1.75424,0.34012 -4.4707,0.74453 -8.89657,1.70593 -13.35119,2.53639 -5.94237,1.06356 -11.85939,2.27631 -17.73838,3.64502 -3.10792,0.66219 -6.20829,1.43061 -9.3297,2.02363 -2.03907,0.3874 -4.10343,0.63188 -6.14361,1.01336 -0.99836,0.18667 -1.98975,0.40888 -2.98463,0.61332 -5.11124,0.92685 -10.22455,1.87637 -15.23307,3.27302 -0.67981,0.19496 -1.35962,0.38992 -2.03942,0.58488 -0.62683,0.15109 -1.2598,0.27866 -1.88049,0.45326 -2.19054,0.6162 -1.24914,0.51302 -3.33657,1.01545 -0.4508,0.1085 -0.9151,0.15475 -1.36579,0.26368 -0.4363,0.10546 -0.86148,0.25251 -1.29221,0.37876 -2.11138,0.50374 -0.19363,-0.0314 -2.20132,0.75691 -1.15984,0.45538 -2.41847,0.70068 -3.48862,1.36163 0,0 -8.60296,-5.07873 -8.60296,-5.07873 z"
         id="path4194"
         style="opacity:0.83189655;fill:#e2faff;fill-opacity:0.83076926;stroke:#ffffff;stroke-width:10;stroke-linejoin:round;stroke-miterlimit:4;stroke-opacity:0.63589747;stroke-dasharray:none;stroke-dashoffset:0" />
      <path
         inkscape:connector-curvature="0"
         d="m 316.73493,163.44969 c 0.0625,-1.53886 0.0356,-3.0798 0.0224,-4.61944 0.017,-1.61556 -0.0279,-3.23131 0.0798,-4.84379 0.14516,-1.8973 0.50245,-3.76689 0.71456,-5.65665 0.0106,-2.32135 -0.0795,-4.63486 0.009,-6.95637 0.12453,-2.95632 0.22084,-5.91146 0.41717,-8.86409 0.26926,-3.2135 0.32207,-6.4302 0.22989,-9.65106 -0.16618,-3.44511 -0.38135,-6.8962 -0.85022,-10.31496 -0.36844,-3.47288 -0.96251,-6.91333 -1.43561,-10.37173 -0.33593,-2.06035 -0.59454,-4.131483 -0.81812,-6.206578 0,0 9.78722,-0.435051 9.78722,-0.435051 l 0,0 c 0.19168,2.028955 0.43492,4.0514 0.75282,6.064929 0.4646,3.46458 1.0352,6.9141 1.41892,10.3897 0.44925,3.55917 0.71351,7.14296 0.87831,10.72596 0.13495,3.36426 0.031,6.72167 -0.2062,10.08059 -0.18899,2.9109 -0.24636,5.82388 -0.35469,8.73866 -0.0826,2.42684 0.0817,4.84054 0.0401,7.2668 -0.19094,1.83853 -0.48961,3.66152 -0.66958,5.501 -0.11786,1.50727 -0.0185,3.02201 -0.0411,4.53264 -0.0132,1.53964 -0.0401,3.08058 0.0224,4.61944 0,0 -9.99731,0 -9.99731,0 z"
         id="path4196"
         style="opacity:0.83189655;fill:#e2faff;fill-opacity:0.83076926;stroke:#ffffff;stroke-width:10;stroke-linejoin:round;stroke-miterlimit:4;stroke-opacity:0.63589747;stroke-dasharray:none;stroke-dashoffset:0" />
      <path
         inkscape:connector-curvature="0"
         d="m 315.06691,164.63277 c 1.43563,-0.96186 2.90078,-1.86634 4.25145,-2.94871 1.18625,-0.91767 2.45385,-1.71943 3.64984,-2.62341 1.25508,-1.03699 2.45035,-2.13776 3.83632,-3.00004 1.50305,-1.07276 3.14166,-1.93191 4.74753,-2.83676 1.74374,-1.00193 3.24015,-2.37829 4.85509,-3.5711 2.15816,-1.51286 4.32806,-3.00142 6.63928,-4.27166 1.35752,-0.67688 2.70046,-1.38077 4.03725,-2.09744 0,0 8.71527,4.38346 8.71527,4.38346 l 0,0 c -1.33932,0.78553 -2.67718,1.57622 -4.07248,2.2604 -0.15153,0.072 -2.1661,1.02476 -2.35003,1.12666 -1.39842,0.77471 -2.6665,1.78461 -3.9886,2.67595 -1.76618,1.11642 -3.37823,2.42053 -4.92835,3.8204 -1.50442,0.96504 -3.07356,1.81041 -4.64715,2.65568 -1.21578,0.87223 -2.61,1.49098 -3.64302,2.61561 -1.1842,1.04835 -2.43055,2.00001 -3.76223,2.85298 -1.44382,0.94464 -2.67617,2.20072 -4.21176,3.01523 0,0 -9.12841,-4.05725 -9.12841,-4.05725 z"
         id="path4198"
         style="opacity:0.83189655;fill:#e2faff;fill-opacity:0.83076926;stroke:#ffffff;stroke-width:10;stroke-linejoin:round;stroke-miterlimit:4;stroke-opacity:0.63589747;stroke-dasharray:none;stroke-dashoffset:0" />
      <path
         inkscape:connector-curvature="0"
         d="m 320.45112,166.30675 c 5.23388,0.0796 10.46817,0.12179 15.70255,0.19468 0.52686,0.0361 1.05346,0.0761 1.58057,0.1084 0.53815,0.0329 1.076,0.0809 1.61512,0.0872 0.56324,0.007 2.25237,-0.0404 1.68915,-0.0487 -1.88338,-0.0278 -3.76722,0.005 -5.65075,-0.01 -0.64137,-0.005 1.28275,-0.0107 1.92407,-0.0198 0.65885,-0.009 1.31762,-0.0237 1.97643,-0.0356 6.97164,-0.14966 13.93301,0.19724 20.90141,0.29878 4.98915,0.22938 9.95655,0.75242 14.89245,1.50536 4.81624,0.56628 9.58921,1.42537 14.33741,2.39981 0.72251,0.20326 1.44502,0.40653 2.16753,0.6098 0,0 -8.04806,5.29988 -8.04806,5.29988 l 0,0 c -0.6718,-0.14872 -1.3436,-0.29743 -2.01541,-0.44615 -4.69951,-0.89242 -9.42468,-1.6224 -14.17045,-2.22401 -4.84349,-0.60675 -9.7149,-1.03208 -14.59896,-1.0836 -3.0765,-0.0563 -6.15226,-0.153 -9.22879,-0.204 -0.71787,-0.0119 -2.87162,-0.0114 -2.15376,-0.0238 1.80898,-0.0311 3.61844,-0.0217 5.42766,-0.0326 -6.09197,0.14216 -12.19019,0.29095 -18.27615,-0.0855 12.87124,0.0136 2.6448,-0.03 -0.379,0.0739 0,0 -7.69302,-6.36422 -7.69302,-6.36422 z"
         id="path4200"
         style="opacity:0.83189655;fill:#e2faff;fill-opacity:0.83076926;stroke:#ffffff;stroke-width:10;stroke-linejoin:round;stroke-miterlimit:4;stroke-opacity:0.63589747;stroke-dasharray:none;stroke-dashoffset:0" />
      <path
         inkscape:connector-curvature="0"
         d="m 317.63178,167.38174 c -1.06483,-1.5237 -2.23608,-2.96008 -3.42365,-4.38883 -1.30803,-2.00781 -3.08261,-3.55843 -4.85258,-5.1343 -2.61432,-2.18814 -5.26373,-4.33331 -7.93903,-6.44769 -3.24568,-2.45145 -6.52627,-4.85673 -9.78774,-7.28737 -2.71472,-2.00174 -5.32272,-4.15197 -8.05904,-6.1245 -0.4803,-0.34624 -3.75535,-2.56183 -4.23247,-2.88536 -3.94193,-2.47372 -7.53604,-5.43444 -11.11207,-8.3982 -2.74503,-2.28898 -5.4003,-4.67736 -7.83413,-7.29767 -1.5859,-1.56835 -3.21519,-3.07743 -4.65648,-4.78083 -0.15982,-0.23709 -0.31964,-0.47419 -0.47947,-0.71129 0,0 9.55222,-2.7837 9.55222,-2.7837 l 0,0 c 0.12242,0.13846 0.24484,0.27693 0.36726,0.4154 1.43349,1.59136 3.00343,3.05615 4.44437,4.64142 2.39293,2.42546 4.92926,4.69754 7.55253,6.87181 3.48175,2.87929 7.05634,5.63622 10.85144,8.09597 4.2194,2.92907 8.2781,6.07221 12.41602,9.11389 3.32854,2.43447 6.6922,4.82476 9.91982,7.39336 2.74069,2.18659 5.5131,4.33948 8.1366,6.66728 1.89662,1.7446 3.58596,3.66379 5.14712,5.71426 1.22993,1.52397 2.41914,3.07835 3.60904,4.63385 0,0 -9.61976,2.6925 -9.61976,2.6925 z"
         id="path4202"
         style="opacity:0.83189655;fill:#e2faff;fill-opacity:0.83076926;stroke:#ffffff;stroke-width:10;stroke-linejoin:round;stroke-miterlimit:4;stroke-opacity:0.63589747;stroke-dasharray:none;stroke-dashoffset:0" />
      <path
         inkscape:connector-curvature="0"
         d="m 317.12441,160.19433 c -0.51449,-1.65625 -0.9019,-3.34666 -1.31206,-5.03057 -0.4071,-1.30659 -0.83599,-2.60216 -1.27476,-3.89835 -0.50707,-1.583 -0.99502,-3.17327 -1.55958,-4.73737 -0.8291,-2.19581 -1.77991,-4.34448 -2.52141,-6.57171 -0.92096,-2.55104 -1.97687,-5.04944 -2.95305,-7.58097 -1.21858,-2.94709 -2.08054,-6.02274 -3.17127,-9.01637 -1.16524,-3.12263 -2.33839,-6.24134 -3.56712,-9.33913 -1.15116,-3.11056 -2.24674,-6.24087 -3.37351,-9.36051 -1.11059,-2.66432 -1.78708,-5.479837 -2.77162,-8.185297 -0.13041,-0.38696 -0.26082,-0.77392 -0.39123,-1.16088 0,0 9.74205,-1.387548 9.74205,-1.387548 l 0,0 c 0.12476,0.379074 0.24952,0.758147 0.37427,1.137221 0.8692,2.721429 1.64976,5.471434 2.68592,8.137864 1.07935,3.08954 2.2206,6.15532 3.34865,9.22727 1.21419,3.1453 2.42493,6.29161 3.57741,9.46025 1.05024,2.96726 1.98902,5.97556 3.20099,8.88359 1.02675,2.56876 2.09142,5.12184 3.0141,7.73091 0.81901,2.19883 1.77245,4.34435 2.58785,6.54477 0.55541,1.58576 1.09785,3.17657 1.61215,4.77609 0.4943,1.41766 0.9407,2.84995 1.31565,4.30431 0.36478,1.51658 0.67671,3.05942 1.30257,4.49593 0,0 -9.866,1.5705 -9.866,1.5705 z"
         id="path4204"
         style="opacity:0.83189655;fill:#e2faff;fill-opacity:0.83076926;stroke:#ffffff;stroke-width:10;stroke-linejoin:round;stroke-miterlimit:4;stroke-opacity:0.63589747;stroke-dasharray:none;stroke-dashoffset:0" />
      <path
         inkscape:connector-curvature="0"
         d="m 316.88637,171.4984 c 0.49648,-1.6617 1.0662,-3.29592 1.81046,-4.86307 0.63617,-1.45903 1.79097,-2.44118 2.97004,-3.43691 1.08135,-0.86213 2.343,-1.41169 3.52106,-2.1093 1.61969,-1.07708 3.1261,-2.30669 4.70475,-3.44017 2.34433,-1.57917 4.87828,-2.84576 7.36239,-4.1853 3.37694,-1.79769 6.76708,-3.57177 10.16503,-5.32987 3.94512,-2.21059 7.98533,-4.23698 11.99684,-6.32128 4.15563,-2.30383 8.3786,-4.48127 12.61381,-6.63404 3.77114,-1.85861 7.43807,-3.91735 11.13407,-5.9187 0,0 8.58058,4.45081 8.58058,4.45081 l 0,0 c -1.82069,0.92406 -3.57699,1.95158 -5.38664,2.8958 -0.61442,0.32058 -1.2515,0.59742 -1.85925,0.9305 -4.16396,2.28213 0.22405,0.13108 -3.98029,2.11879 -4.21754,2.11658 -8.44809,4.21585 -12.55881,6.53552 -3.94563,2.20217 -8.07371,4.04744 -11.96719,6.34962 -3.30987,1.83214 -6.66637,3.58719 -10.0354,5.30784 -2.34084,1.35637 -4.73559,2.61676 -7.09824,3.9278 -1.62597,1.00545 -3.07991,2.20363 -4.6019,3.35316 -0.23406,0.19096 -1.13857,0.93755 -1.39217,1.11025 -0.67525,0.45983 -1.51144,0.61027 -2.14557,1.14758 -0.74771,0.32288 -0.12529,0.0161 -0.89189,0.52624 -0.47373,0.31528 -1.03473,0.43739 -1.42069,0.89258 -0.76176,1.14616 -1.22557,2.4453 -1.5849,3.76733 0,0 -9.93609,-1.07518 -9.93609,-1.07518 z"
         id="path4206"
         style="opacity:0.83189655;fill:#e2faff;fill-opacity:0.83076926;stroke:#ffffff;stroke-width:10;stroke-linejoin:round;stroke-miterlimit:4;stroke-opacity:0.63589747;stroke-dasharray:none;stroke-dashoffset:0" />
      <path
         inkscape:connector-curvature="0"
         d="m 319.91683,164.42733 c 0.60467,-2.20804 1.67962,-4.22201 2.85105,-6.17232 1.32898,-2.15578 3.00613,-4.05754 4.80895,-5.82405 1.93499,-1.88192 3.685,-3.94588 5.47192,-5.96691 2.17914,-2.31442 4.51138,-4.4773 6.85488,-6.6228 2.49925,-2.0669 4.72634,-4.41438 7.00666,-6.71078 2.33366,-2.19537 4.69206,-4.34875 6.87913,-6.69271 1.14389,-1.19921 2.23703,-2.44365 3.29406,-3.7195 0,0 9.41764,2.88365 9.41764,2.88365 l 0,0 c -1.08488,1.39532 -2.22512,2.75119 -3.45405,4.02277 -1.09385,1.15984 -2.16682,2.34708 -3.29987,3.46897 -1.53577,1.52064 -0.92676,0.85314 -2.48637,2.25527 -0.40887,0.36758 -0.8039,0.75025 -1.20585,1.12538 -2.39077,2.26385 -4.47482,4.83199 -7.06026,6.89213 -2.29074,2.00197 -4.47658,4.11728 -6.66226,6.23093 -1.91491,2.027 -3.68275,4.19206 -5.54658,6.26687 -1.61842,1.48639 -3.2136,3.00342 -4.46986,4.82276 -1.01729,1.49263 -2.0029,3.0504 -2.4631,4.81552 0,0 -9.93609,-1.07518 -9.93609,-1.07518 z"
         id="path4208"
         style="opacity:0.83189655;fill:#e2faff;fill-opacity:0.83076926;stroke:#ffffff;stroke-width:10;stroke-linejoin:round;stroke-miterlimit:4;stroke-opacity:0.63589747;stroke-dasharray:none;stroke-dashoffset:0" />
      <path
         inkscape:connector-curvature="0"
         d="m 326.51389,167.72066 c 0.25196,0.18071 0.48187,0.39701 0.75588,0.54213 0.26769,0.14177 0.57886,0.18387 0.85404,0.31049 0.37305,0.17165 0.71926,0.39684 1.08574,0.58209 1.26238,0.63814 2.52837,1.2727 3.80259,1.88758 1.40007,0.85837 2.96321,1.37847 4.44533,2.06241 1.79066,0.82631 3.55022,1.74407 5.32444,2.6062 3.9288,1.62152 7.50083,3.90083 11.13977,6.06056 3.89466,2.36772 7.66197,4.93474 11.50902,7.37572 4.16836,2.50286 8.26895,5.12438 12.55477,7.42373 0.72711,0.37508 1.45422,0.75017 2.18133,1.12525 0,0 -8.49925,4.38881 -8.49925,4.38881 l 0,0 c -0.73707,-0.40114 -1.47414,-0.80228 -2.21121,-1.20342 -4.28647,-2.46288 -8.52552,-5.00788 -12.70407,-7.65014 -3.78732,-2.46316 -7.60113,-4.88527 -11.46831,-7.22163 -3.5633,-2.09989 -7.21773,-4.01936 -10.99309,-5.7145 -3.29768,-1.54845 -6.63581,-3.00825 -9.89537,-4.63687 -1.62416,-0.79738 -3.27789,-1.52449 -4.91224,-2.29688 -0.34968,-0.16526 -0.67615,-0.37832 -1.03082,-0.53257 -0.20884,-0.0908 -0.43556,-0.13328 -0.65333,-0.19991 0,0 8.71478,-4.90905 8.71478,-4.90905 z"
         id="path4210"
         style="opacity:0.83189655;fill:#e2faff;fill-opacity:0.83076926;stroke:#ffffff;stroke-width:10;stroke-linejoin:round;stroke-miterlimit:4;stroke-opacity:0.63589747;stroke-dasharray:none;stroke-dashoffset:0" />
    </g>
    <rect
       ry="20.1108"
       y="37.158875"
       x="234.94463"
       height="220.21326"
       width="207.9231"
       id="rect4261"
       style="fill:none;stroke:#ffffff;stroke-width:4.83078384;stroke-miterlimit:4;stroke-opacity:1;stroke-dasharray:none;filter:url(#filter4263)"
       transform="matrix(1.0634212,0,0,1.0073945,-28.123322,-0.55673438)"
       mask="url(#mask4269)" />
  </g>
</svg>
